<?xml version="1.0" standalone="no"?>
<!DOCTYPE svg PUBLIC "-//W3C//DTD SVG 20010904//EN"
 "http://www.w3.org/TR/2001/REC-SVG-20010904/DTD/svg10.dtd">
<svg version="1.0" xmlns="http://www.w3.org/2000/svg"
 width="275.000000pt" height="183.000000pt" viewBox="0 0 275.000000 183.000000"
 preserveAspectRatio="xMidYMid meet">
<metadata>
Created by potrace 1.16, written by Peter Selinger 2001-2019
</metadata>
<g transform="translate(0.000000,183.000000) scale(0.100000,-0.100000)"
fill="#000000" stroke="none">
<path d="M670 1795 c-30 -19 -61 -34 -68 -35 -7 0 -44 -16 -83 -35 -39 -19
-75 -32 -80 -29 -5 3 -9 0 -9 -5 0 -6 -6 -11 -13 -11 -7 0 -35 -15 -62 -32
-78 -51 -142 -81 -159 -75 -9 4 -16 2 -16 -3 0 -6 5 -10 10 -10 6 0 15 -10 20
-22 6 -17 9 -18 9 -6 1 16 51 48 76 48 7 0 15 7 19 15 6 17 36 20 36 4 0 -8 4
-8 14 0 11 9 16 9 22 -1 6 -9 10 -4 14 17 4 20 11 29 21 27 8 -1 25 7 37 18
12 11 27 20 35 20 7 0 22 7 33 15 10 8 37 24 59 35 22 11 47 24 55 29 8 5 36
18 62 30 26 12 50 26 53 32 13 20 -33 6 -85 -26z"/>
<path d="M2725 1768 c-4 -35 -8 -85 -9 -113 -4 -77 -5 -85 -13 -84 -31 5 -41
-4 -47 -38 -8 -48 -16 -167 -9 -133 7 35 19 45 37 31 19 -16 21 -10 36 77 9
49 16 69 22 60 6 -8 6 -4 2 12 -9 28 -9 29 1 158 5 61 5 92 -2 92 -6 0 -14
-28 -18 -62z"/>
<path d="M1666 1735 c4 -23 -24 -43 -71 -49 -28 -4 -214 -11 -415 -15 -201 -5
-380 -12 -397 -16 -20 -4 -38 -3 -46 3 -9 8 -23 0 -54 -28 -22 -21 -39 -41
-37 -43 3 -2 -14 -42 -37 -88 -23 -46 -59 -131 -81 -189 -21 -58 -36 -89 -33
-70 3 25 2 31 -5 20 -5 -8 -10 -23 -10 -33 0 -10 -4 -16 -9 -13 -5 3 -9 -4 -8
-17 0 -12 -3 -30 -7 -39 -7 -15 -3 -16 26 -13 187 26 821 40 1098 26 504 -27
488 -25 515 -51 13 -12 22 -27 19 -31 -3 -5 2 -6 10 -3 9 3 16 15 16 25 0 10
3 18 8 17 16 -5 96 13 123 28 24 12 29 21 29 50 0 40 -36 84 -69 84 -11 0 -23
5 -26 11 -9 13 33 59 53 59 18 0 6 15 -11 15 -13 1 -31 -20 -53 -63 l-14 -27
0 27 c0 20 -4 26 -15 22 -8 -4 -15 -1 -15 5 0 6 -11 11 -24 11 -18 0 -25 -7
-29 -27 -6 -34 1 -46 10 -15 5 22 33 32 33 12 0 -5 -5 -10 -11 -10 -5 0 -7 -5
-4 -10 5 -8 11 -8 20 0 8 7 16 7 19 2 3 -5 -8 -15 -25 -22 -31 -13 -54 -52
-45 -76 3 -7 -3 -23 -14 -36 l-19 -23 -16 40 c-10 22 -30 74 -45 116 -16 42
-47 114 -70 159 -23 45 -36 79 -29 75 7 -5 10 -3 7 6 -3 8 -11 14 -19 14 -8 0
-15 10 -17 23 -2 12 -9 22 -15 23 -7 0 -25 17 -42 36 -24 30 -26 34 -7 22 12
-8 22 -17 22 -22 0 -4 9 -3 20 3 28 15 25 27 -8 28 -15 0 -32 2 -37 3 -6 2
-21 -3 -34 -10 -13 -7 -21 -9 -17 -3 3 5 -1 24 -10 41 -12 24 -22 31 -44 31
-16 0 -30 3 -33 8 -2 4 -3 2 -1 -3z"/>
<path d="M2505 1530 c4 -14 8 -39 9 -57 2 -28 0 -31 -15 -22 -10 5 -25 6 -33
3 -19 -7 -46 -59 -46 -87 0 -21 -47 -124 -60 -132 -4 -3 -10 13 -14 35 -3 22
-10 40 -15 40 -5 0 -2 -23 6 -52 11 -37 13 -53 4 -56 -6 -2 -11 -24 -11 -50
l0 -47 21 35 c12 19 25 37 30 41 5 3 11 26 14 52 2 26 11 60 20 76 8 17 15 43
15 58 0 27 29 63 50 63 17 0 60 -31 60 -44 0 -6 -5 -4 -10 4 -11 18 -7 -65 5
-94 5 -11 3 -21 -5 -26 -9 -6 -10 -12 -1 -26 6 -11 11 -13 11 -6 0 6 4 12 9
12 12 0 21 -38 14 -58 -6 -13 -8 -13 -15 4 -5 12 -6 2 -2 -26 3 -25 5 -55 5
-67 0 -12 4 -25 9 -28 6 -3 10 -17 10 -31 0 -13 4 -24 9 -24 5 0 7 8 4 18 -3
14 4 22 26 31 16 7 35 10 40 6 7 -3 11 3 11 16 0 20 -3 21 -45 15 -44 -7 -45
-7 -45 20 0 27 1 27 15 8 25 -32 31 -4 32 153 l1 148 -19 -89 c-27 -127 -42
-129 -18 -3 8 48 8 60 -5 73 -15 14 -16 14 -16 -3 -1 -17 -2 -17 -15 1 -8 11
-15 29 -14 40 0 16 2 17 7 6 6 -13 32 -26 32 -16 0 2 -16 28 -36 57 -22 32
-34 44 -29 29z"/>
<path d="M424 1423 c-7 -2 -9 -22 -6 -53 3 -33 1 -50 -7 -50 -6 0 -11 -9 -11
-20 0 -17 -3 -19 -19 -10 -11 5 -31 10 -46 10 -36 0 -98 -27 -90 -40 3 -6 11
-8 16 -5 5 3 6 -1 3 -9 -5 -12 -10 -13 -24 -4 -10 7 -17 15 -14 19 2 4 -1 11
-7 15 -9 5 -10 -6 -5 -42 4 -27 7 -55 8 -62 1 -7 7 -11 14 -8 8 3 16 1 19 -4
3 -5 26 -12 50 -16 25 -3 45 -8 45 -11 0 -18 -37 -63 -52 -63 -10 0 -18 -6
-18 -14 0 -20 17 -29 23 -14 3 8 6 6 6 -4 1 -10 5 -18 11 -18 5 0 14 8 19 18
8 12 10 13 11 3 0 -8 3 -11 6 -8 4 4 2 12 -3 19 -7 9 -5 21 3 38 8 14 14 19
14 13 0 -22 14 -14 44 27 29 39 29 42 29 165 0 69 -2 127 -4 129 -2 2 -9 1
-15 -1z"/>
<path d="M2666 1222 c-5 -8 0 -54 10 -100 2 -12 0 -30 -5 -40 -6 -12 -5 -23 5
-37 17 -23 18 -35 2 -35 -6 0 -19 -6 -27 -14 -28 -24 -59 -29 -64 -9 -3 12 -5
9 -6 -9 -1 -32 14 -44 34 -28 8 6 19 9 25 5 6 -4 17 -1 25 5 13 10 15 8 15
-13 0 -19 4 -25 14 -21 15 6 27 72 14 80 -4 3 -8 20 -8 37 0 21 3 28 9 19 5
-9 11 7 15 44 4 33 3 60 -3 63 -5 4 -13 19 -16 34 -7 26 -28 36 -39 19z"/>
<path d="M2194 829 l-9 -114 -55 -6 -55 -6 58 -1 c50 -2 58 -4 54 -19 -3 -10
-8 -40 -12 -68 -8 -65 -43 -173 -59 -182 -7 -5 -18 -18 -25 -30 -18 -34 -58
-51 -157 -64 -49 -6 -94 -15 -100 -20 -33 -27 -161 -39 -479 -45 -359 -7 -563
3 -635 31 -25 9 -61 19 -80 22 -136 17 -170 25 -192 50 -13 13 -30 32 -39 41
-9 9 -21 26 -26 37 -18 35 -42 159 -49 246 -3 46 -9 118 -12 159 l-7 75 -20
-30 c-19 -28 -20 -49 -23 -403 -3 -415 0 -442 48 -442 16 0 32 -5 35 -10 3 -6
18 -8 33 -5 15 3 81 0 147 -5 102 -9 470 -31 500 -30 6 0 204 2 440 4 420 4
723 17 895 36 146 17 253 31 305 39 l50 8 -55 2 c-71 2 -96 16 -43 24 21 4 47
4 58 1 11 -3 31 -1 45 4 21 8 17 10 -31 16 -141 17 -141 17 -122 32 11 8 44
13 81 14 34 0 62 4 62 10 0 6 7 10 15 10 12 0 15 14 15 66 l0 66 -82 -6 c-46
-3 -96 -7 -113 -7 -26 -1 -27 -2 -10 -9 15 -7 11 -9 -22 -9 -24 -1 -43 4 -46
12 -4 9 -8 9 -15 -1 -6 -9 -42 -16 -109 -19 l-100 -6 -6 139 c-4 91 -2 141 5
145 7 4 6 8 -3 11 -9 3 -12 38 -11 144 1 118 -1 144 -17 173 l-18 34 -9 -114z"/>
<path d="M1010 841 c-175 -13 -223 -30 -266 -92 -15 -22 -38 -42 -51 -46 -19
-4 -21 -8 -11 -14 10 -7 9 -9 -4 -9 -17 0 -27 -20 -10 -20 4 0 30 -2 57 -4 28
-2 38 -1 23 1 -14 2 -32 12 -40 21 -12 16 -11 16 6 2 16 -13 94 -15 554 -15
419 0 536 3 540 13 2 6 20 13 40 13 l37 2 -35 6 c-26 5 -35 11 -33 24 0 10 -2
16 -5 13 -3 -3 -12 3 -19 14 -12 17 -12 24 -3 35 8 10 9 15 2 15 -6 0 -13 -4
-17 -9 -3 -6 -18 -3 -35 7 -23 14 -27 19 -17 32 10 13 10 13 -4 3 -12 -9 -30
-10 -75 -3 -78 14 -502 21 -634 11z"/>
<path d="M1588 524 c3 -48 0 -64 -10 -64 -7 0 -133 -3 -280 -7 l-267 -6 -7 26
c-3 15 -4 45 -2 67 3 38 2 40 -24 40 -29 0 -44 -26 -34 -57 12 -37 -5 -42
-149 -45 l-140 -3 1 -35 c1 -51 24 -91 62 -113 49 -29 348 -41 719 -29 241 7
294 11 325 26 40 19 70 68 72 120 l1 31 -127 3 -128 3 0 49 c0 27 -3 51 -7 53
-5 3 -6 -24 -5 -59z"/>
</g>
</svg>
